<?xml version="1.0" encoding="UTF-8"?>
<svg version="1.1" xmlns="http://www.w3.org/2000/svg" width="37" height="37">
<path d="M0 0 C12.21 0 24.42 0 37 0 C37 12.21 37 24.42 37 37 C24.79 37 12.58 37 0 37 C0 24.79 0 12.58 0 0 Z " fill="#FCFDFC" transform="translate(0,0)"/>
<path d="M0 0 C1.8359375 1.3359375 1.8359375 1.3359375 3.125 3.3125 C3.77656507 7.723916 3.59132187 11.88891896 3.125 16.3125 C1.805 15.9825 0.485 15.6525 -0.875 15.3125 C-0.875 12.6725 -0.875 10.0325 -0.875 7.3125 C-11.27 7.8075 -11.27 7.8075 -21.875 8.3125 C-22.205 10.6225 -22.535 12.9325 -22.875 15.3125 C-24.195 15.6425 -25.515 15.9725 -26.875 16.3125 C-28.0547328 5.12142362 -28.0547328 5.12142362 -25.5859375 1.3359375 C-18.67308569 -3.6942653 -7.5640502 -3.48592349 0 0 Z " fill="#1B941E" transform="translate(30.875,2.6875)"/>
<path d="M0 0 C0 5.61 0 11.22 0 17 C-10.41390728 17.36754967 -10.41390728 17.36754967 -12.84375 15.84375 C-14.46489067 13.25868785 -14.29419981 11.3356612 -14.1875 8.3125 C-14.16042969 7.31863281 -14.13335937 6.32476562 -14.10546875 5.30078125 C-14.07066406 4.54152344 -14.03585937 3.78226563 -14 3 C-12.4188708 2.49307308 -10.83498617 1.99473557 -9.25 1.5 C-7.92742188 1.08234375 -7.92742188 1.08234375 -6.578125 0.65625 C-4 0 -4 0 0 0 Z " fill="#19931C" transform="translate(18,18)"/>
<path d="M0 0 C10.17857143 2.00892857 10.17857143 2.00892857 14 3 C14.08114106 4.77007714 14.13925505 6.54122098 14.1875 8.3125 C14.22230469 9.29863281 14.25710937 10.28476562 14.29296875 11.30078125 C14 14 14 14 12.84375 15.84375 C9.0755389 18.20686544 4.27521975 17.15089011 0 17 C0 11.39 0 5.78 0 0 Z " fill="#19941C" transform="translate(20,18)"/>
<path d="M0 0 C2.64 0 5.28 0 8 0 C8 1.98 8 3.96 8 6 C5.36 5.67 2.72 5.34 0 5 C0 3.35 0 1.7 0 0 Z " fill="#2E9D30" transform="translate(20,11)"/>
<path d="M0 0 C2.31 0 4.62 0 7 0 C7 1.65 7 3.3 7 5 C4.69 5.33 2.38 5.66 0 6 C0 4.02 0 2.04 0 0 Z " fill="#1C951F" transform="translate(11,11)"/>
<path d="M0 0 C0.99 0.33 1.98 0.66 3 1 C3 2.65 3 4.3 3 6 C4.32 5.67 5.64 5.34 7 5 C6.67 5.99 6.34 6.98 6 8 C3.69 8.33 1.38 8.66 -1 9 C-1.33 8.34 -1.66 7.68 -2 7 C-1.34 7 -0.68 7 0 7 C0 4.69 0 2.38 0 0 Z " fill="#B9DEBA" transform="translate(8,11)"/>
<path d="M0 0 C0.33 0 0.66 0 1 0 C1.66 3.63 2.32 7.26 3 11 C1.35 10.67 -0.3 10.34 -2 10 C-1.34 6.7 -0.68 3.4 0 0 Z " fill="#C1E2C2" transform="translate(29,10)"/>
</svg>
